<svg xmlns="http://www.w3.org/2000/svg" xmlns:xlink="http://www.w3.org/1999/xlink" width="180" zoomAndPan="magnify" viewBox="0 0 135 135.000003" height="180" preserveAspectRatio="xMidYMid meet" version="1.0"><defs><clipPath id="b7137f0b11"><path d="M 0.496094 0 L 134.503906 0 L 134.503906 134.007812 L 0.496094 134.007812 Z M 0.496094 0 " clip-rule="nonzero"/></clipPath></defs><g clip-path="url(#b7137f0b11)"><path fill="#ffffff" d="M 0.496094 0 L 134.503906 0 L 134.503906 134.007812 L 0.496094 134.007812 Z M 0.496094 0 " fill-opacity="1" fill-rule="nonzero"/><path fill="#e2e7f6" d="M 0.496094 0 L 134.503906 0 L 134.503906 134.007812 L 0.496094 134.007812 Z M 0.496094 0 " fill-opacity="1" fill-rule="nonzero"/></g><path fill="#003ea5" d="M 78.035156 15.695312 L 81.492188 15.695312 L 86.515625 16.324219 L 91.855469 18.203125 L 94.679688 19.773438 L 94.679688 20.398438 L 96.25 21.027344 L 99.707031 23.847656 L 101.277344 25.730469 L 101.277344 26.359375 L 101.90625 26.359375 L 102.847656 27.925781 L 102.847656 28.554688 L 103.476562 28.554688 L 105.671875 32.945312 L 106.929688 37.019531 L 107.242188 39.214844 L 107.242188 47.683594 L 106.300781 51.445312 L 104.417969 56.148438 L 102.53125 59.285156 L 101.90625 59.285156 L 101.277344 60.851562 L 94.367188 67.753906 L 96.25 69.949219 L 100.960938 74.652344 L 103.160156 77.789062 L 105.671875 82.804688 L 106.929688 86.882812 L 107.242188 89.390625 L 107.242188 95.347656 L 106.300781 100.367188 L 104.730469 104.441406 L 102.847656 107.578125 L 100.019531 111.027344 L 97.195312 113.851562 L 93.109375 116.671875 L 88.085938 118.867188 L 82.433594 120.121094 L 76.78125 120.121094 L 72.070312 119.183594 L 67.671875 117.613281 L 64.21875 115.730469 L 60.132812 112.28125 L 42.234375 94.40625 L 42.859375 93.152344 L 57.621094 78.414062 L 58.25 78.414062 L 58.25 77.789062 L 58.878906 77.789062 L 58.878906 77.160156 L 59.507812 77.160156 L 59.507812 76.53125 L 60.449219 75.59375 L 61.078125 75.59375 L 61.078125 74.964844 L 61.703125 74.964844 L 61.703125 74.335938 L 62.648438 73.398438 L 63.273438 73.398438 L 63.273438 72.769531 L 63.902344 72.769531 L 63.902344 72.144531 L 64.84375 71.203125 L 65.472656 71.203125 L 65.472656 70.574219 L 66.101562 70.574219 L 66.101562 69.949219 L 67.042969 69.007812 L 67.671875 69.007812 L 67.671875 68.378906 L 68.300781 68.378906 L 67.671875 66.8125 L 55.421875 54.582031 L 52.910156 52.386719 L 50.710938 49.878906 L 49.140625 48.625 L 47.886719 47.054688 L 46.316406 45.800781 L 44.746094 44.234375 L 42.859375 42.039062 L 42.234375 41.410156 L 61.078125 22.59375 L 64.53125 20.085938 L 67.671875 18.203125 L 73.011719 16.324219 Z M 78.351562 33.882812 L 75.210938 34.824219 L 73.324219 36.078125 L 67.984375 41.410156 L 69.871094 43.605469 L 81.175781 54.894531 L 82.433594 54.269531 L 86.515625 50.191406 L 86.515625 49.5625 L 87.144531 49.5625 L 88.714844 46.429688 L 89.027344 45.171875 L 89.027344 42.039062 L 88.085938 38.902344 L 85.886719 36.078125 L 83.0625 34.511719 L 80.546875 33.882812 Z M 81.175781 80.921875 L 78.035156 83.746094 L 70.183594 91.585938 L 67.671875 93.78125 L 68.300781 95.035156 L 73.324219 100.050781 L 76.464844 101.621094 L 80.546875 101.933594 L 82.746094 101.308594 L 85.257812 100.050781 L 87.457031 97.855469 L 88.398438 95.976562 L 89.027344 91.898438 L 88.398438 88.449219 L 86.515625 85.941406 L 81.492188 80.921875 Z M 81.175781 80.921875 " fill-opacity="1" fill-rule="nonzero"/><path fill="#172389" d="M 78.035156 15.695312 L 81.492188 15.695312 L 86.515625 16.324219 L 91.855469 18.203125 L 94.679688 19.773438 L 94.679688 20.398438 L 96.25 21.027344 L 99.707031 23.847656 L 101.277344 25.730469 L 101.277344 26.359375 L 101.90625 26.359375 L 102.847656 27.925781 L 102.847656 28.554688 L 103.476562 28.554688 L 105.671875 32.945312 L 106.929688 37.019531 L 107.242188 39.214844 L 107.242188 47.683594 L 106.300781 51.445312 L 104.417969 56.148438 L 102.53125 59.285156 L 101.90625 59.285156 L 101.277344 60.851562 L 94.367188 67.753906 L 92.796875 66.183594 L 81.804688 55.207031 L 82.433594 53.953125 L 86.203125 50.191406 L 86.515625 49.5625 L 87.144531 49.5625 L 87.773438 47.996094 L 88.714844 45.171875 L 88.714844 42.039062 L 87.773438 38.902344 L 85.886719 36.394531 L 83.0625 34.824219 L 80.546875 34.199219 L 78.351562 34.199219 L 75.210938 35.136719 L 73.324219 36.394531 L 55.421875 54.269531 L 54.796875 54.269531 L 53.226562 52.699219 L 50.710938 49.878906 L 49.140625 48.625 L 47.886719 47.054688 L 46.316406 45.800781 L 44.746094 44.234375 L 42.859375 42.039062 L 42.234375 41.410156 L 61.078125 22.59375 L 64.53125 20.085938 L 67.671875 18.203125 L 73.011719 16.324219 Z M 78.035156 15.695312 " fill-opacity="1" fill-rule="nonzero"/><path fill="#172389" d="M 68.300781 68.066406 L 69.554688 68.691406 L 70.183594 69.949219 L 71.441406 70.574219 L 75.523438 74.652344 L 75.523438 75.277344 L 76.152344 75.277344 L 76.152344 75.90625 L 77.40625 76.53125 L 81.175781 80.296875 L 80.863281 81.550781 L 78.351562 83.746094 L 70.183594 91.898438 L 67.984375 93.78125 L 65.789062 96.289062 L 65.160156 96.289062 L 64.53125 97.542969 L 63.589844 97.855469 L 62.960938 99.113281 L 61.390625 100.679688 L 56.679688 105.382812 L 55.421875 106.636719 L 54.167969 106.324219 L 42.234375 94.40625 L 42.859375 93.152344 L 57.621094 78.414062 L 58.25 78.414062 L 58.25 77.789062 L 58.878906 77.789062 L 58.878906 77.160156 L 59.507812 77.160156 L 59.507812 76.53125 L 60.449219 75.59375 L 61.078125 75.59375 L 61.078125 74.964844 L 61.703125 74.964844 L 61.703125 74.335938 L 62.648438 73.398438 L 63.273438 73.398438 L 63.273438 72.769531 L 63.902344 72.769531 L 63.902344 72.144531 L 64.84375 71.203125 L 65.472656 71.203125 L 65.472656 70.574219 L 66.101562 70.574219 L 66.101562 69.949219 L 67.042969 69.007812 L 67.671875 69.007812 L 67.671875 68.378906 Z M 68.300781 68.066406 " fill-opacity="1" fill-rule="nonzero"/><path fill="#172389" d="M 40.347656 43.917969 L 42.546875 45.800781 L 51.96875 55.207031 L 51.65625 56.464844 L 50.398438 57.089844 L 50.398438 57.71875 L 49.769531 57.71875 L 49.140625 58.972656 L 48.199219 59.285156 L 48.199219 59.914062 L 47.570312 59.914062 L 46.945312 61.167969 L 46 61.480469 L 46 62.109375 L 45.375 62.109375 L 44.746094 63.363281 L 43.804688 63.675781 L 43.804688 64.304688 L 43.175781 64.304688 L 43.175781 64.929688 L 42.546875 64.929688 L 41.917969 66.183594 L 40.976562 66.496094 L 40.976562 67.125 L 40.347656 67.125 L 40.347656 67.753906 L 39.09375 67.125 L 28.414062 56.464844 L 29.042969 55.207031 Z M 40.347656 43.917969 " fill-opacity="1" fill-rule="nonzero"/><path fill="#003ea5" d="M 40.035156 68.066406 L 42.234375 69.949219 L 49.769531 77.472656 L 49.769531 78.101562 L 51.027344 78.726562 L 51.96875 79.667969 L 51.65625 80.921875 L 49.769531 82.492188 L 48.199219 84.371094 L 46.628906 85.941406 L 42.234375 90.332031 L 40.976562 91.585938 L 39.71875 90.957031 L 35.953125 87.195312 L 33.4375 85 L 28.414062 79.984375 L 29.042969 78.726562 L 34.695312 73.082031 L 37.207031 70.886719 Z M 54.480469 58.34375 L 55.738281 58.972656 L 64.53125 67.753906 L 63.902344 69.007812 L 59.820312 72.769531 L 55.109375 77.472656 L 53.851562 76.847656 L 45.058594 68.066406 L 46.945312 65.871094 Z M 54.480469 58.34375 " fill-opacity="1" fill-rule="nonzero"/></svg>